<?xml version="1.0" standalone="no"?>
<!DOCTYPE svg PUBLIC "-//W3C//DTD SVG 20010904//EN"
 "http://www.w3.org/TR/2001/REC-SVG-20010904/DTD/svg10.dtd">
<svg version="1.0" xmlns="http://www.w3.org/2000/svg"
 width="300.000000pt" height="300.000000pt" viewBox="0 0 300.000000 300.000000"
 preserveAspectRatio="xMidYMid meet">
<metadata>
Created by potrace 1.10, written by Peter Selinger 2001-2011
</metadata>
<g transform="translate(0.000000,300.000000) scale(0.100000,-0.100000)"
fill="#000000" stroke="none">
<path d="M604 1681 c-18 -11 -39 -29 -47 -41 l-15 -22 -29 20 c-36 26 -102 36
-109 17 -13 -33 47 -85 98 -85 l23 0 -7 -117 c-8 -129 -4 -156 19 -151 12 2
17 16 18 48 0 25 2 82 3 128 l2 82 33 0 c37 0 104 44 132 86 13 20 14 28 4 40
-17 20 -88 17 -125 -5z m86 -10 c0 -16 -82 -81 -102 -81 -10 0 -18 4 -18 8 0
12 40 47 75 65 35 19 45 20 45 8z m-200 -46 c33 -17 38 -25 16 -25 -14 0 -67
39 -53 40 4 0 21 -7 37 -15z"/>
<path d="M1408 1630 c-1 -5 -2 -52 0 -104 3 -96 12 -116 43 -94 11 7 11 11 2
15 -9 3 -13 33 -13 99 0 74 -3 94 -14 94 -8 0 -16 -4 -18 -10z"/>
<path d="M2180 1605 c0 -33 -2 -35 -25 -29 -40 10 -65 -19 -65 -77 0 -48 18
-79 45 -79 7 0 21 7 29 16 15 14 17 14 32 -1 13 -12 19 -13 31 -4 12 11 12 14
-1 21 -13 7 -16 28 -16 98 0 73 -3 90 -15 90 -10 0 -15 -11 -15 -35z m-2 -91
c4 -49 -20 -83 -44 -63 -29 24 -9 113 24 107 12 -2 18 -15 20 -44z"/>
<path d="M1162 1613 c2 -10 10 -18 18 -18 8 0 16 8 18 18 2 12 -3 17 -18 17
-15 0 -20 -5 -18 -17z"/>
<path d="M2262 1613 c2 -10 10 -18 18 -18 8 0 16 8 18 18 2 12 -3 17 -18 17
-15 0 -20 -5 -18 -17z"/>
<path d="M1840 1591 c0 -11 -6 -22 -12 -24 -10 -4 -10 -6 0 -6 8 -1 12 -20 12
-61 0 -47 4 -61 18 -69 11 -6 23 -6 33 0 12 8 11 11 -3 20 -13 7 -18 23 -18
59 0 43 3 50 20 50 11 0 20 5 20 10 0 6 -8 10 -17 8 -12 -2 -17 3 -15 15 2 11
-4 17 -18 17 -13 0 -20 -7 -20 -19z"/>
<path d="M870 1566 c0 -8 4 -17 9 -20 5 -3 6 -26 3 -51 -5 -45 10 -81 29 -69
12 7 11 111 -1 135 -12 22 -40 26 -40 5z"/>
<path d="M927 1573 c-12 -12 -7 -21 11 -19 11 1 16 -5 14 -16 -4 -23 24 -24
32 -2 11 30 -35 60 -57 37z"/>
<path d="M1015 1564 c-20 -20 -15 -38 13 -42 17 -3 19 1 15 18 -5 18 -2 21 18
18 34 -4 40 -48 7 -48 -32 0 -68 -27 -68 -50 0 -25 29 -40 58 -29 30 11 28 27
-3 21 -31 -5 -35 22 -6 38 30 15 43 12 36 -9 -3 -11 3 -28 14 -42 17 -20 22
-22 33 -10 10 11 10 14 1 18 -8 3 -13 23 -13 53 0 31 -6 54 -16 64 -20 21 -68
20 -89 0z"/>
<path d="M1169 1576 c-2 -2 -2 -37 1 -78 4 -54 9 -73 19 -73 11 0 14 15 12 70
-1 38 -5 73 -7 77 -6 9 -18 11 -25 4z"/>
<path d="M1230 1566 c0 -8 4 -17 9 -20 5 -3 6 -26 3 -51 -4 -43 8 -75 29 -75
5 0 9 26 9 59 0 41 5 62 15 71 24 20 34 2 37 -65 2 -45 7 -60 18 -60 22 0 26
99 5 131 -18 27 -47 31 -66 8 -11 -14 -13 -14 -21 0 -11 20 -38 21 -38 2z"/>
<path d="M1486 1514 c2 -37 7 -71 10 -75 8 -13 58 -11 73 4 10 10 11 6 5 -18
-3 -16 -10 -34 -14 -38 -11 -12 -45 -3 -42 11 1 7 -7 12 -19 12 -30 0 -20 -32
14 -44 39 -14 78 9 89 52 5 18 8 61 6 95 -2 49 -6 62 -20 65 -16 3 -18 -5 -18
-56 0 -41 -5 -63 -15 -72 -24 -20 -34 -2 -37 65 -2 47 -7 61 -20 63 -15 3 -16
-5 -12 -64z"/>
<path d="M1712 1568 c-25 -25 -14 -57 29 -78 43 -22 47 -43 10 -48 -16 -3 -24
2 -28 18 -7 25 -28 21 -28 -6 0 -28 49 -42 83 -23 43 24 40 54 -7 79 -23 11
-41 27 -41 35 0 20 39 19 46 0 9 -21 24 -19 24 4 0 30 -63 44 -88 19z"/>
<path d="M1930 1517 c0 -52 4 -67 21 -83 19 -17 22 -17 48 -3 25 15 29 15 38
0 9 -14 13 -14 24 -2 11 10 11 15 2 18 -9 3 -13 27 -13 70 0 56 -2 64 -17 61
-14 -2 -17 -12 -14 -50 3 -50 -13 -92 -32 -85 -7 2 -14 31 -17 68 -4 50 -9 65
-22 67 -16 3 -18 -5 -18 -61z"/>
<path d="M2262 1503 c2 -61 6 -78 18 -78 12 0 15 15 15 75 -1 63 -4 75 -18 78
-16 3 -18 -5 -15 -75z"/>
<path d="M2350 1560 c-22 -22 -27 -78 -10 -110 13 -24 55 -33 83 -19 31 16 37
28 37 72 0 44 -28 77 -65 77 -14 0 -34 -9 -45 -20z m76 -36 c8 -41 -8 -84 -31
-84 -23 0 -39 43 -31 84 6 30 11 36 31 36 20 0 25 -6 31 -36z"/>
<path d="M2502 1568 c-25 -25 -14 -57 29 -78 43 -22 47 -43 10 -48 -16 -3 -24
2 -28 18 -7 25 -28 21 -28 -5 0 -29 57 -42 90 -21 37 25 32 52 -15 76 -22 11
-40 27 -40 35 0 21 37 19 49 -2 9 -16 12 -16 21 -3 20 31 -60 56 -88 28z"/>
</g>
</svg>
